{
  "accessors": [
    {
      "bufferView": 2,
      "componentType": 5126,
      "count": 342,
      "max": [
        0.9999997615814209,
        1,
        1.2030692100524902
      ],
      "min": [
        -0.9999997615814209,
        -1,
        -1.0000005960464478
      ],
      "type": "VEC3"
    },
    {
      "bufferView": 2,
      "byteOffset": 4104,
      "componentType": 5126,
      "count": 342,
      "max": [
        0.99995243549346924,
        1,
        0.99995988607406616
      ],
      "min": [
        -0.99995243549346924,
        -1,
        -0.99995958805084229
      ],
      "type": "VEC3"
    },
    {
      "bufferView": 1,
      "componentType": 5126,
      "count": 342,
      "max": [
        0.99175161123275757,
        0.99154472351074219
      ],
      "min": [
        0.0091964602470397949,
        0.0073200911283493042
      ],
      "type": "VEC2"
    },
    {
      "bufferView": 0,
      "componentType": 5125,
      "count": 1092,
      "max": [
        341
      ],
      "min": [
        0
      ],
      "type": "SCALAR"
    },
    {
      "bufferView": 2,
      "byteOffset": 8208,
      "componentType": 5126,
      "count": 246,
      "max": [
        0.56538176536560059,
        0.39512574672698975,
        0.5
      ],
      "min": [
        -0.56538176536560059,
        -0.5,
        -0.5
      ],
      "type": "VEC3"
    },
    {
      "bufferView": 2,
      "byteOffset": 11160,
      "componentType": 5126,
      "count": 246,
      "max": [
        0.99828177690505981,
        0.9947967529296875,
        1
      ],
      "min": [
        -0.99828296899795532,
        -0.99997478723526001,
        -1
      ],
      "type": "VEC3"
    },
    {
      "bufferView": 1,
      "byteOffset": 2736,
      "componentType": 5126,
      "count": 246,
      "max": [
        0.93235284090042114,
        0.98556512594223022
      ],
      "min": [
        0.035602986812591553,
        0.0033896453678607941
      ],
      "type": "VEC2"
    },
    {
      "bufferView": 0,
      "byteOffset": 4368,
      "componentType": 5125,
      "count": 708,
      "max": [
        245
      ],
      "min": [
        0
      ],
      "type": "SCALAR"
    },
    {
      "bufferView": 2,
      "byteOffset": 14112,
      "componentType": 5126,
      "count": 190,
      "max": [
        1.0171129703521729,
        1.1604413986206055,
        0.60039156675338745
      ],
      "min": [
        -1.0171128511428833,
        -1.1604413986206055,
        -1.015742301940918
      ],
      "type": "VEC3"
    },
    {
      "bufferView": 2,
      "byteOffset": 16392,
      "componentType": 5126,
      "count": 190,
      "max": [
        0.99991542100906372,
        1,
        0.99992799758911133
      ],
      "min": [
        -0.99991536140441895,
        -1,
        -0.72304898500442505
      ],
      "type": "VEC3"
    },
    {
      "bufferView": 1,
      "byteOffset": 4704,
      "componentType": 5126,
      "count": 190,
      "max": [
        0.99175161123275757,
        0.99154472351074219
      ],
      "min": [
        0.0091964602470397949,
        0.34864673018455505
      ],
      "type": "VEC2"
    },
    {
      "bufferView": 0,
      "byteOffset": 7200,
      "componentType": 5125,
      "count": 648,
      "max": [
        189
      ],
      "min": [
        0
      ],
      "type": "SCALAR"
    },
    {
      "bufferView": 2,
      "byteOffset": 18672,
      "componentType": 5126,
      "count": 152,
      "max": [
        0.77993309497833252,
        1.1604413986206055,
        1.2188022136688232
      ],
      "min": [
        -0.77996712923049927,
        -1.1604413986206055,
        0.5877830982208252
      ],
      "type": "VEC3"
    },
    {
      "bufferView": 2,
      "byteOffset": 20496,
      "componentType": 5126,
      "count": 152,
      "max": [
        0.88662832975387573,
        0.99999994039535522,
        -0.00051750935381278396
      ],
      "min": [
        -0.88662850856781006,
        -0.99999994039535522,
        -0.99993127584457397
      ],
      "type": "VEC3"
    },
    {
      "bufferView": 1,
      "byteOffset": 6224,
      "componentType": 5126,
      "count": 152,
      "max": [
        0.99117779731750488,
        0.57567930221557617
      ],
      "min": [
        0.095404304563999176,
        0.0073200911283493042
      ],
      "type": "VEC2"
    },
    {
      "bufferView": 0,
      "byteOffset": 9792,
      "componentType": 5125,
      "count": 444,
      "max": [
        151
      ],
      "min": [
        0
      ],
      "type": "SCALAR"
    },
    {
      "bufferView": 2,
      "byteOffset": 22320,
      "componentType": 5126,
      "count": 246,
      "max": [
        0.5897754430770874,
        0.40451303124427795,
        0.54013252258300781
      ],
      "min": [
        -0.58977758884429932,
        -0.50986921787261963,
        -0.54013252258300781
      ],
      "type": "VEC3"
    },
    {
      "bufferView": 2,
      "byteOffset": 25272,
      "componentType": 5126,
      "count": 246,
      "max": [
        0.99761456251144409,
        0.9999467134475708,
        0.99999916553497314
      ],
      "min": [
        -0.99761104583740234,
        -0.99459385871887207,
        -0.99999922513961792
      ],
      "type": "VEC3"
    },
    {
      "bufferView": 1,
      "byteOffset": 7440,
      "componentType": 5126,
      "count": 246,
      "max": [
        0.93235284090042114,
        0.98556512594223022
      ],
      "min": [
        0.035602986812591553,
        0.0033896453678607941
      ],
      "type": "VEC2"
    },
    {
      "bufferView": 0,
      "byteOffset": 11568,
      "componentType": 5125,
      "count": 708,
      "max": [
        245
      ],
      "min": [
        0
      ],
      "type": "SCALAR"
    }
  ],
  "asset": {
    "extras": {
      "author": "PolyChromic (https://sketchfab.com/PolyChromicDesing)",
      "license": "CC-BY-4.0 (http://creativecommons.org/licenses/by/4.0/)",
      "source": "https://sketchfab.com/3d-models/ping-pong-racket-cee4b24f04c842688dc2e5cbc1cabfb5",
      "title": "Ping Pong Racket"
    },
    "generator": "Sketchfab-9.94.0",
    "version": "2.0"
  },
  "bufferViews": [
    {
      "buffer": 0,
      "byteLength": 14400,
      "byteOffset": 0,
      "name": "floatBufferViews",
      "target": 34963
    },
    {
      "buffer": 0,
      "byteLength": 9408,
      "byteOffset": 14400,
      "byteStride": 8,
      "name": "floatBufferViews",
      "target": 34962
    },
    {
      "buffer": 0,
      "byteLength": 28224,
      "byteOffset": 23808,
      "byteStride": 12,
      "name": "floatBufferViews",
      "target": 34962
    }
  ],
  "buffers": [
    {
      "byteLength": 52032,
      "uri": "scene.bin"
    }
  ],
  "extensionsUsed": [
    "KHR_materials_unlit"
  ],
  "images": [
    {
      "uri": "textures/lambert3_baseColor.png"
    },
    {
      "uri": "textures/lambert2_baseColor.png"
    }
  ],
  "materials": [
    {
      "doubleSided": true,
      "emissiveFactor": [
        0,
        0,
        0
      ],
      "extensions": {
        "KHR_materials_unlit": {}
      },
      "name": "lambert3",
      "pbrMetallicRoughness": {
        "baseColorFactor": [
          1,
          1,
          1,
          1
        ],
        "baseColorTexture": {
          "index": 0,
          "texCoord": 0
        },
        "metallicFactor": 0,
        "roughnessFactor": 1
      }
    },
    {
      "doubleSided": true,
      "emissiveFactor": [
        0,
        0,
        0
      ],
      "extensions": {
        "KHR_materials_unlit": {}
      },
      "name": "lambert2",
      "pbrMetallicRoughness": {
        "baseColorFactor": [
          1,
          1,
          1,
          1
        ],
        "baseColorTexture": {
          "index": 1,
          "texCoord": 0
        },
        "metallicFactor": 0,
        "roughnessFactor": 1
      }
    },
    {
      "doubleSided": false,
      "emissiveFactor": [
        0,
        0,
        0
      ],
      "extensions": {
        "KHR_materials_unlit": {}
      },
      "name": "lambert4",
      "pbrMetallicRoughness": {
        "baseColorFactor": [
          0.65924126863515453,
          0.077870108144150157,
          0,
          1
        ],
        "metallicFactor": 0,
        "roughnessFactor": 1
      }
    },
    {
      "doubleSided": false,
      "emissiveFactor": [
        0,
        0,
        0
      ],
      "extensions": {
        "KHR_materials_unlit": {}
      },
      "name": "lambert6",
      "pbrMetallicRoughness": {
        "baseColorFactor": [
          0.2482802702197365,
          0.053251233628318871,
          0,
          1
        ],
        "metallicFactor": 0,
        "roughnessFactor": 1
      }
    },
    {
      "doubleSided": false,
      "emissiveFactor": [
        0,
        0,
        0
      ],
      "extensions": {
        "KHR_materials_unlit": {}
      },
      "name": "lambert5",
      "pbrMetallicRoughness": {
        "baseColorFactor": [
          0.25015828472995333,
          0.052860647023180246,
          0,
          1
        ],
        "metallicFactor": 0,
        "roughnessFactor": 1
      }
    }
  ],
  "meshes": [
    {
      "name": "pCylinder1_lambert3_0",
      "primitives": [
        {
          "attributes": {
            "NORMAL": 1,
            "POSITION": 0,
            "TEXCOORD_0": 2
          },
          "indices": 3,
          "material": 0,
          "mode": 4
        }
      ]
    },
    {
      "name": "pCube1_lambert2_0",
      "primitives": [
        {
          "attributes": {
            "NORMAL": 5,
            "POSITION": 4,
            "TEXCOORD_0": 6
          },
          "indices": 7,
          "material": 1,
          "mode": 4
        }
      ]
    },
    {
      "name": "pCylinder2_lambert4_0",
      "primitives": [
        {
          "attributes": {
            "NORMAL": 9,
            "POSITION": 8,
            "TEXCOORD_0": 10
          },
          "indices": 11,
          "material": 2,
          "mode": 4
        }
      ]
    },
    {
      "name": "pCylinder2_lambert6_0",
      "primitives": [
        {
          "attributes": {
            "NORMAL": 13,
            "POSITION": 12,
            "TEXCOORD_0": 14
          },
          "indices": 15,
          "material": 3,
          "mode": 4
        }
      ]
    },
    {
      "name": "pCube2_lambert5_0",
      "primitives": [
        {
          "attributes": {
            "NORMAL": 17,
            "POSITION": 16,
            "TEXCOORD_0": 18
          },
          "indices": 19,
          "material": 4,
          "mode": 4
        }
      ]
    }
  ],
  "nodes": [
    {
      "children": [
        1
      ],
      "name": "RootNode (gltf orientation matrix)",
      "rotation": [
        -0.70710678118654746,
        -0,
        -0,
        0.70710678118654757
      ]
    },
    {
      "children": [
        2
      ],
      "matrix": [
        -1,
        0,
        0,
        0,
        0,
        -1,
        0,
        0,
        0,
        0,
        1,
        0,
        7.6771002568420954e-06,
        2.6230000571558776e-07,
        0,
        1
      ],
      "name": "RootNode (model correction matrix)"
    },
    {
      "children": [
        3
      ],
      "matrix": [
        1,
        0,
        0,
        0,
        0,
        0,
        1,
        0,
        0,
        -1,
        0,
        0,
        0,
        0,
        0,
        1
      ],
      "name": "d22a6ffeeea34c81a2e24ea9751eb6f3.fbx"
    },
    {
      "children": [
        4,
        6,
        8,
        11
      ],
      "name": "RootNode"
    },
    {
      "children": [
        5
      ],
      "matrix": [
        1.1499999761581421,
        0,
        0,
        0,
        0,
        2.7755575615628914e-17,
        0.125,
        0,
        0,
        -1.25,
        2.7755575615628914e-16,
        0,
        0,
        2.2999999523162842,
        0,
        1
      ],
      "name": "pCylinder1"
    },
    {
      "mesh": 0,
      "name": "pCylinder1_lambert3_0"
    },
    {
      "children": [
        7
      ],
      "matrix": [
        0.63942712545394897,
        0,
        0,
        0,
        0,
        1.6000000238418579,
        0,
        0,
        0,
        0,
        0.40000000596046448,
        0,
        0,
        0.80000001192092896,
        0,
        1
      ],
      "name": "pCube1"
    },
    {
      "mesh": 1,
      "name": "pCube1_lambert2_0"
    },
    {
      "children": [
        9,
        10
      ],
      "matrix": [
        1.1499999761581421,
        0,
        0,
        0,
        0,
        2.7755575615628914e-17,
        0.125,
        0,
        0,
        -1.25,
        2.7755575615628914e-16,
        0,
        0,
        2.2999999523162842,
        0,
        1
      ],
      "name": "pCylinder2"
    },
    {
      "mesh": 2,
      "name": "pCylinder2_lambert4_0"
    },
    {
      "mesh": 3,
      "name": "pCylinder2_lambert6_0"
    },
    {
      "children": [
        12
      ],
      "matrix": [
        0.63942712545394897,
        0,
        0,
        0,
        0,
        1.6000000238418579,
        0,
        0,
        0,
        0,
        0.40000000596046448,
        0,
        0,
        0.80000001192092896,
        0,
        1
      ],
      "name": "pCube2"
    },
    {
      "mesh": 4,
      "name": "pCube2_lambert5_0"
    }
  ],
  "samplers": [
    {
      "magFilter": 9729,
      "minFilter": 9987,
      "wrapS": 10497,
      "wrapT": 10497
    }
  ],
  "scene": 0,
  "scenes": [
    {
      "name": "OSG_Scene",
      "nodes": [
        0
      ]
    }
  ],
  "textures": [
    {
      "sampler": 0,
      "source": 0
    },
    {
      "sampler": 0,
      "source": 1
    }
  ]
}

